# 3ds Max Wavefront OBJ Exporter v0.97b - (c)2007 guruware
# File Created: 07.01.2018 06:47:57

mtllib Block.mtl

#
# object Basic_Block
#

v  -1.9022 0.0000 2.8804
v  -1.9022 0.0000 -2.1196
v  3.0978 0.0000 -2.1196
v  3.0978 0.0000 2.8804
v  -1.9022 5.0000 2.8804
v  3.0978 5.0000 2.8804
v  3.0978 5.0000 -2.1196
v  -1.9022 5.0000 -2.1196
# 8 vertices

vn 0.0000 -1.0000 -0.0000
vn 0.0000 1.0000 -0.0000
vn 0.0000 0.0000 1.0000
vn 1.0000 0.0000 -0.0000
vn 0.0000 0.0000 -1.0000
vn -1.0000 0.0000 -0.0000
# 6 vertex normals

vt 0.5529 0.6317 0.0000
vt 0.5529 0.3544 0.0000
vt 0.8302 0.3544 0.0000
vt 0.8302 0.6317 0.0000
vt 0.1614 0.6935 0.0000
vt 0.4388 0.6935 0.0000
vt 0.4388 0.9709 0.0000
vt 0.1614 0.9709 0.0000
vt 0.5494 0.0361 0.0000
vt 0.8267 0.0361 0.0000
vt 0.8267 0.3134 0.0000
vt 0.5494 0.3134 0.0000
vt 0.5473 0.6908 0.0000
vt 0.8246 0.6908 0.0000
vt 0.8246 0.9682 0.0000
vt 0.5473 0.9682 0.0000
vt 0.1580 0.3578 0.0000
vt 0.4353 0.3578 0.0000
vt 0.4353 0.6352 0.0000
vt 0.1580 0.6352 0.0000
vt 0.1545 0.0256 0.0000
vt 0.4318 0.0256 0.0000
vt 0.4318 0.3030 0.0000
vt 0.1545 0.3030 0.0000
# 24 texture coords

g Basic_Block
usemtl wire_088144225
s 2
f 1/1/1 2/2/1 3/3/1 4/4/1 
s 4
f 5/5/2 6/6/2 7/7/2 8/8/2 
s 8
f 1/9/3 4/10/3 6/11/3 5/12/3 
s 16
f 4/13/4 3/14/4 7/15/4 6/16/4 
s 32
f 3/17/5 2/18/5 8/19/5 7/20/5 
s 64
f 2/21/6 1/22/6 5/23/6 8/24/6 
# 6 polygons

