# 3ds Max Wavefront OBJ Exporter v0.97b - (c)2007 guruware
# File Created: 07.01.2018 07:35:07

#
# object Box002
#

v  -3.1007 0.2017 -3.6479
v  -3.1007 0.2017 -4.5978
v  -2.1508 0.2017 -4.5978
v  -2.1508 0.2017 -3.6479
v  -3.1007 1.7983 -3.6479
v  -2.1508 1.7983 -3.6479
v  -2.1508 1.7983 -4.5978
v  -3.1007 1.7983 -4.5978
v  -3.1007 0.5251 -3.3246
v  -2.1508 0.5251 -3.3246
v  -2.1508 1.4749 -3.3246
v  -3.1007 1.4749 -3.3246
v  -1.8275 0.5251 -3.6479
v  -1.8275 0.5251 -4.5978
v  -1.8275 1.4749 -4.5978
v  -1.8275 1.4749 -3.6479
v  -2.1508 0.5251 -4.9212
v  -3.1007 0.5251 -4.9212
v  -3.1007 1.4749 -4.9212
v  -2.1508 1.4749 -4.9212
v  -3.4241 0.5251 -4.5978
v  -3.4241 0.5251 -3.6479
v  -3.4241 1.4749 -3.6479
v  -3.4241 1.4749 -4.5978
v  -3.3632 0.2625 -3.1229
v  -3.6258 0.2625 -3.3854
v  -3.3632 0.0000 -3.3854
v  -1.8883 0.0000 -3.3854
v  -1.6258 0.2625 -3.3854
v  -1.8883 0.2625 -3.1229
v  -3.6258 0.2625 -4.8603
v  -3.3632 0.2625 -5.1229
v  -3.3632 0.0000 -4.8603
v  -1.8883 0.0000 -4.8603
v  -1.8883 0.2625 -5.1229
v  -1.6258 0.2625 -4.8603
v  -3.3632 1.7375 -3.1229
v  -3.3632 2.0000 -3.3854
v  -3.6258 1.7375 -3.3854
v  -1.6258 1.7375 -3.3854
v  -1.8883 2.0000 -3.3854
v  -1.8883 1.7375 -3.1229
v  -3.6258 1.7375 -4.8603
v  -3.3632 2.0000 -4.8603
v  -3.3632 1.7375 -5.1229
v  -1.8883 1.7375 -5.1229
v  -1.8883 2.0000 -4.8603
v  -1.6258 1.7375 -4.8603
v  -3.1007 0.0000 -4.5978
v  -3.1007 0.0000 -3.6479
v  -2.1508 0.0000 -4.5978
v  -2.1508 0.0000 -3.6479
v  -2.1508 2.0000 -3.6479
v  -3.1007 2.0000 -3.6479
v  -2.1508 2.0000 -4.5978
v  -3.1007 2.0000 -4.5978
v  -2.1508 1.4749 -3.1229
v  -2.1508 0.5251 -3.1229
v  -3.1007 1.4749 -3.1229
v  -3.1007 0.5251 -3.1229
v  -1.6258 1.4749 -4.5978
v  -1.6258 0.5251 -4.5978
v  -1.6258 1.4749 -3.6479
v  -1.6258 0.5251 -3.6479
v  -3.1007 1.4749 -5.1229
v  -3.1007 0.5251 -5.1229
v  -2.1508 1.4749 -5.1229
v  -2.1508 0.5251 -5.1229
v  -3.6258 0.5251 -3.6479
v  -3.6258 0.5251 -4.5978
v  -3.6258 1.4749 -3.6479
v  -3.6258 1.4749 -4.5978
# 72 vertices

vn 0.0000 -1.0000 -0.0000
vn 0.0000 1.0000 -0.0000
vn 0.0000 0.0000 1.0000
vn 1.0000 0.0000 -0.0000
vn 0.0000 0.0000 -1.0000
vn -1.0000 0.0000 -0.0000
vn -0.5774 -0.5774 0.5774
vn 0.5774 -0.5774 0.5774
vn -0.5774 -0.5774 -0.5774
vn 0.5774 -0.5774 -0.5774
vn -0.5774 0.5774 0.5774
vn 0.5774 0.5774 0.5774
vn -0.5774 0.5774 -0.5774
vn 0.5774 0.5774 -0.5774
vn -0.7071 -0.7071 -0.0000
vn 0.0000 -0.7071 -0.7071
vn 0.7071 -0.7071 -0.0000
vn 0.0000 -0.7071 0.7071
vn 0.0000 0.7071 0.7071
vn 0.7071 0.7071 -0.0000
vn 0.0000 0.7071 -0.7071
vn -0.7071 0.7071 -0.0000
vn 0.7071 0.0000 0.7071
vn -0.7071 0.0000 0.7071
vn 0.7071 0.0000 -0.7071
vn -0.7071 0.0000 -0.7071
# 26 vertex normals

vt 0.5774 0.7201 0.0000
vt 0.5774 0.5790 0.0000
vt 0.7185 0.5790 0.0000
vt 0.7185 0.7201 0.0000
vt 0.7977 0.3197 0.0000
vt 0.9388 0.3197 0.0000
vt 0.9388 0.4608 0.0000
vt 0.7977 0.4608 0.0000
vt 0.6562 0.3197 0.0000
vt 0.7973 0.3197 0.0000
vt 0.7973 0.4608 0.0000
vt 0.6562 0.4608 0.0000
vt 0.0604 0.7201 0.0000
vt 0.2015 0.7201 0.0000
vt 0.2015 0.8612 0.0000
vt 0.0604 0.8612 0.0000
vt 0.0604 0.5786 0.0000
vt 0.2015 0.5786 0.0000
vt 0.2015 0.7197 0.0000
vt 0.0604 0.7197 0.0000
vt 0.3579 0.7985 0.0000
vt 0.4990 0.7985 0.0000
vt 0.4990 0.9396 0.0000
vt 0.3579 0.9396 0.0000
vt 0.5116 0.4399 0.0000
vt 0.5116 0.4951 0.0000
vt 0.4639 0.4675 0.0000
vt 0.5120 0.4675 0.0000
vt 0.5598 0.4399 0.0000
vt 0.5598 0.4951 0.0000
vt 0.1983 0.5068 0.0000
vt 0.1432 0.5068 0.0000
vt 0.1707 0.4590 0.0000
vt 0.4827 0.6207 0.0000
vt 0.5103 0.6684 0.0000
vt 0.4552 0.6684 0.0000
vt 0.4827 0.7166 0.0000
vt 0.4552 0.6689 0.0000
vt 0.5103 0.6689 0.0000
vt 0.4272 0.7166 0.0000
vt 0.3996 0.6689 0.0000
vt 0.4548 0.6689 0.0000
vt 0.4272 0.6684 0.0000
vt 0.3996 0.6207 0.0000
vt 0.4548 0.6207 0.0000
vt 0.7866 0.1817 0.0000
vt 0.7389 0.2093 0.0000
vt 0.7389 0.1541 0.0000
vt 0.0994 0.3185 0.0000
vt 0.0604 0.3185 0.0000
vt 0.0604 0.0994 0.0000
vt 0.0994 0.0994 0.0000
vt 0.0994 0.0604 0.0000
vt 0.3185 0.0604 0.0000
vt 0.3185 0.0994 0.0000
vt 0.3575 0.0994 0.0000
vt 0.3575 0.3185 0.0000
vt 0.3185 0.3185 0.0000
vt 0.3185 0.3575 0.0000
vt 0.0994 0.3575 0.0000
vt 0.9142 0.2795 0.0000
vt 0.8753 0.2795 0.0000
vt 0.8753 0.0604 0.0000
vt 0.9142 0.0604 0.0000
vt 0.6160 0.3197 0.0000
vt 0.6160 0.3587 0.0000
vt 0.3969 0.3587 0.0000
vt 0.3969 0.3197 0.0000
vt 0.3185 0.5770 0.0000
vt 0.2795 0.5770 0.0000
vt 0.2795 0.3579 0.0000
vt 0.3185 0.3579 0.0000
vt 0.6160 0.0604 0.0000
vt 0.6160 0.0994 0.0000
vt 0.3969 0.0994 0.0000
vt 0.3969 0.0604 0.0000
vt 0.6550 0.5778 0.0000
vt 0.6160 0.5778 0.0000
vt 0.6550 0.3587 0.0000
vt 0.3579 0.0994 0.0000
vt 0.3969 0.3185 0.0000
vt 0.3579 0.3185 0.0000
vt 0.3969 0.5778 0.0000
vt 0.3579 0.5778 0.0000
vt 0.3579 0.3587 0.0000
vt 0.6550 0.3185 0.0000
vt 0.6160 0.3185 0.0000
vt 0.6550 0.0994 0.0000
vt 0.1384 0.1384 0.0000
vt 0.1384 0.2795 0.0000
vt 0.2795 0.1384 0.0000
vt 0.2795 0.2795 0.0000
vt 0.3579 0.5790 0.0000
vt 0.5770 0.5790 0.0000
vt 0.5380 0.6180 0.0000
vt 0.3969 0.6180 0.0000
vt 0.5770 0.7981 0.0000
vt 0.5380 0.7591 0.0000
vt 0.3579 0.7981 0.0000
vt 0.3969 0.7591 0.0000
vt 0.6562 0.0604 0.0000
vt 0.8363 0.0994 0.0000
vt 0.6952 0.0994 0.0000
vt 0.8363 0.2405 0.0000
vt 0.6562 0.2795 0.0000
vt 0.6952 0.2405 0.0000
vt 0.4359 0.3977 0.0000
vt 0.4359 0.5388 0.0000
vt 0.5770 0.3977 0.0000
vt 0.5770 0.5388 0.0000
vt 0.0604 0.3579 0.0000
vt 0.2405 0.3969 0.0000
vt 0.0994 0.3969 0.0000
vt 0.2405 0.5380 0.0000
vt 0.0604 0.5770 0.0000
vt 0.0994 0.5380 0.0000
vt 0.4359 0.2795 0.0000
vt 0.5770 0.2795 0.0000
vt 0.4359 0.1384 0.0000
vt 0.5770 0.1384 0.0000
vt 0.7973 0.3111 0.0000
vt 0.6562 0.3111 0.0000
vt 0.6562 0.2811 0.0000
vt 0.7973 0.2811 0.0000
vt 0.9388 0.4912 0.0000
vt 0.7977 0.4912 0.0000
vt 0.7977 0.4612 0.0000
vt 0.9388 0.4612 0.0000
vt 0.3430 0.6085 0.0000
vt 0.2019 0.6085 0.0000
vt 0.2019 0.5786 0.0000
vt 0.3430 0.5786 0.0000
vt 0.8600 0.6090 0.0000
vt 0.7189 0.6090 0.0000
vt 0.7189 0.5790 0.0000
vt 0.8600 0.5790 0.0000
vt 0.7977 0.4924 0.0000
vt 0.9388 0.4924 0.0000
vt 0.9388 0.5223 0.0000
vt 0.7977 0.5223 0.0000
vt 0.7189 0.6102 0.0000
vt 0.8600 0.6102 0.0000
vt 0.8600 0.6401 0.0000
vt 0.7189 0.6401 0.0000
vt 0.2019 0.7516 0.0000
vt 0.3430 0.7516 0.0000
vt 0.3430 0.7816 0.0000
vt 0.2019 0.7816 0.0000
vt 0.7189 0.7987 0.0000
vt 0.8600 0.7987 0.0000
vt 0.8600 0.8287 0.0000
vt 0.7189 0.8287 0.0000
vt 0.2019 0.7828 0.0000
vt 0.3430 0.7828 0.0000
vt 0.3430 0.8128 0.0000
vt 0.2019 0.8128 0.0000
vt 0.2019 0.6098 0.0000
vt 0.3430 0.6098 0.0000
vt 0.3430 0.6397 0.0000
vt 0.2019 0.6397 0.0000
vt 0.9388 0.5535 0.0000
vt 0.7977 0.5535 0.0000
vt 0.7977 0.5235 0.0000
vt 0.9388 0.5235 0.0000
vt 0.3430 0.9390 0.0000
vt 0.2019 0.9390 0.0000
vt 0.2019 0.9091 0.0000
vt 0.3430 0.9091 0.0000
vt 0.7189 0.6725 0.0000
vt 0.8600 0.6725 0.0000
vt 0.8600 0.7024 0.0000
vt 0.7189 0.7024 0.0000
vt 0.7985 0.2811 0.0000
vt 0.9396 0.2811 0.0000
vt 0.9396 0.3111 0.0000
vt 0.7985 0.3111 0.0000
vt 0.3430 0.7020 0.0000
vt 0.2019 0.7020 0.0000
vt 0.2019 0.6721 0.0000
vt 0.3430 0.6721 0.0000
vt 0.2019 0.7201 0.0000
vt 0.3430 0.7201 0.0000
vt 0.3430 0.7500 0.0000
vt 0.2019 0.7500 0.0000
vt 0.2019 0.8459 0.0000
vt 0.3430 0.8459 0.0000
vt 0.3430 0.8759 0.0000
vt 0.2019 0.8759 0.0000
vt 0.8600 0.6713 0.0000
vt 0.7189 0.6713 0.0000
vt 0.7189 0.6413 0.0000
vt 0.8600 0.6413 0.0000
vt 0.8600 0.7656 0.0000
vt 0.7189 0.7656 0.0000
vt 0.7189 0.7356 0.0000
vt 0.8600 0.7356 0.0000
vt 0.2019 0.6409 0.0000
vt 0.3430 0.6409 0.0000
vt 0.3430 0.6709 0.0000
vt 0.2019 0.6709 0.0000
vt 0.3430 0.8443 0.0000
vt 0.2019 0.8443 0.0000
vt 0.2019 0.8144 0.0000
vt 0.3430 0.8144 0.0000
vt 0.2019 0.8775 0.0000
vt 0.3430 0.8775 0.0000
vt 0.3430 0.9075 0.0000
vt 0.2019 0.9075 0.0000
vt 0.8600 0.7340 0.0000
vt 0.7189 0.7340 0.0000
vt 0.7189 0.7040 0.0000
vt 0.8600 0.7040 0.0000
vt 0.8600 0.7971 0.0000
vt 0.7189 0.7971 0.0000
vt 0.7189 0.7672 0.0000
vt 0.8600 0.7672 0.0000
# 216 texture coords

g Box002
s 1
f 1/1/1 2/2/1 3/3/1 4/4/1 
f 5/5/2 6/6/2 7/7/2 8/8/2 
f 9/9/3 10/10/3 11/11/3 12/12/3 
f 13/13/4 14/14/4 15/15/4 16/16/4 
f 17/17/5 18/18/5 19/19/5 20/20/5 
f 21/21/6 22/22/6 23/23/6 24/24/6 
s 2
f 25/25/7 26/26/7 27/27/7 
f 28/28/8 29/29/8 30/30/8 
f 31/31/9 32/32/9 33/33/9 
f 34/34/10 35/35/10 36/36/10 
f 37/37/11 38/38/11 39/39/11 
f 40/40/12 41/41/12 42/42/12 
f 43/43/13 44/44/13 45/45/13 
f 46/46/14 47/47/14 48/48/14 
s 4
f 27/49/15 26/50/15 31/51/15 33/52/15 
s 8
f 33/52/16 32/53/16 35/54/16 34/55/16 
s 4
f 34/55/17 36/56/17 29/57/17 28/58/17 
s 8
f 28/58/18 30/59/18 25/60/18 27/49/18 
s 4
f 38/61/19 37/62/19 42/63/19 41/64/19 
s 8
f 41/65/20 40/66/20 48/67/20 47/68/20 
s 4
f 47/69/21 46/70/21 45/71/21 44/72/21 
s 8
f 44/73/22 43/74/22 39/75/22 38/76/22 
s 16
f 30/77/23 29/78/23 40/66/23 42/79/23 
f 37/80/24 39/75/24 26/81/24 25/82/24 
f 36/83/25 35/84/25 46/85/25 48/67/25 
f 32/86/26 31/87/26 43/74/26 45/88/26 
s off
f 27/49/1 33/52/1 49/89/1 50/90/1 
f 33/52/1 34/55/1 51/91/1 49/89/1 
f 34/55/1 28/58/1 52/92/1 51/91/1 
f 28/58/1 27/49/1 50/90/1 52/92/1 
f 38/93/2 41/94/2 53/95/2 54/96/2 
f 41/94/2 47/97/2 55/98/2 53/95/2 
f 47/97/2 44/99/2 56/100/2 55/98/2 
f 44/99/2 38/93/2 54/96/2 56/100/2 
f 30/101/3 42/63/3 57/102/3 58/103/3 
f 42/63/3 37/62/3 59/104/3 57/102/3 
f 37/62/3 25/105/3 60/106/3 59/104/3 
f 25/105/3 30/101/3 58/103/3 60/106/3 
f 36/83/4 48/67/4 61/107/4 62/108/4 
f 48/67/4 40/66/4 63/109/4 61/107/4 
f 40/66/4 29/78/4 64/110/4 63/109/4 
f 29/78/4 36/83/4 62/108/4 64/110/4 
f 32/111/5 45/71/5 65/112/5 66/113/5 
f 45/71/5 46/70/5 67/114/5 65/112/5 
f 46/70/5 35/115/5 68/116/5 67/114/5 
f 35/115/5 32/111/5 66/113/5 68/116/5 
f 31/87/6 26/81/6 69/117/6 70/118/6 
f 26/81/6 39/75/6 71/119/6 69/117/6 
f 39/75/6 43/74/6 72/120/6 71/119/6 
f 43/74/6 31/87/6 70/118/6 72/120/6 
f 50/121/4 49/122/4 2/123/4 1/124/4 
f 49/125/3 51/126/3 3/127/3 2/128/3 
f 51/129/6 52/130/6 4/131/6 3/132/6 
f 52/133/5 50/134/5 1/135/5 4/136/5 
f 54/137/5 53/138/5 6/139/5 5/140/5 
f 53/141/6 55/142/6 7/143/6 6/144/6 
f 55/145/3 56/146/3 8/147/3 7/148/3 
f 56/149/4 54/150/4 5/151/4 8/152/4 
f 58/153/6 57/154/6 11/155/6 10/156/6 
f 57/157/1 59/158/1 12/159/1 11/160/1 
f 59/161/4 60/162/4 9/163/4 12/164/4 
f 60/165/2 58/166/2 10/167/2 9/168/2 
f 62/169/3 61/170/3 15/171/3 14/172/3 
f 61/173/1 63/174/1 16/175/1 15/176/1 
f 63/177/5 64/178/5 13/179/5 16/180/5 
f 64/181/2 62/182/2 14/183/2 13/184/2 
f 66/185/4 65/186/4 19/187/4 18/188/4 
f 65/189/1 67/190/1 20/191/1 19/192/1 
f 67/193/6 68/194/6 17/195/6 20/196/6 
f 68/197/2 66/198/2 18/199/2 17/200/2 
f 70/201/2 69/202/2 22/203/2 21/204/2 
f 69/205/5 71/206/5 23/207/5 22/208/5 
f 71/209/1 72/210/1 24/211/1 23/212/1 
f 72/213/3 70/214/3 21/215/3 24/216/3 
# 66 polygons - 8 triangles

