# 3ds Max Wavefront OBJ Exporter v0.97b - (c)2007 guruware
# File Created: 07.01.2018 23:51:39

#
# object Box002
#

v  -1.6633 -1.6650 1.8573
v  -1.4084 -1.6650 0.8216
v  1.4118 -1.6650 0.8216
v  1.6667 -1.6650 1.8573
v  -1.6633 1.6650 1.8573
v  1.6667 1.6650 1.8573
v  1.4118 1.6650 0.8216
v  -1.4084 1.6650 0.8216
v  1.6667 -0.9847 1.8573
v  -1.6633 -0.9847 1.8573
v  1.4118 -0.9847 0.8216
v  1.6140 -1.6650 -1.8573
v  -1.5674 -1.6650 -1.8573
v  -1.6820 -1.1574 -1.8573
v  1.6140 -1.1574 -1.8573
v  -1.4084 -0.9847 0.8216
v  1.6667 0.9281 1.8573
v  -1.6633 0.9281 1.8573
v  1.4118 0.9281 0.8216
v  -1.4084 0.9281 0.8216
v  -1.3577 -1.6650 0.2858
v  1.6820 -1.6650 0.2858
v  -1.4722 -1.0178 0.2858
v  1.6820 0.8019 0.2858
v  -1.6786 0.8019 0.2858
v  1.4118 0.2410 0.8216
v  1.6820 0.1481 0.2858
v  1.6667 0.2410 1.8573
v  -1.6633 0.2410 1.8573
v  -1.6786 0.1481 0.2858
v  -1.4084 0.2410 0.8216
v  1.4118 -0.5405 0.8216
v  1.6820 -0.5952 0.2858
v  -1.3577 -1.6650 -0.2499
v  0.1591 -1.6650 -0.2499
v  -1.4722 -1.0178 -0.2499
v  0.1591 0.1481 -0.2499
v  -1.6786 0.1481 -0.2499
v  0.1591 -0.4415 -0.2499
v  1.6667 -0.5405 1.8573
v  -1.6633 -0.5405 1.8573
v  -1.5470 -0.4415 -0.2499
v  -1.4084 -0.5405 0.8216
v  -1.5470 -0.5952 0.2858
v  1.6820 -1.0178 0.2858
v  0.1591 -1.0178 -0.2499
v  -1.3577 -1.6650 -0.7857
v  1.4597 -1.6650 -0.7857
v  -1.4722 -1.0178 -0.7857
v  1.4597 -0.5952 -0.7857
v  -1.5470 -0.5952 -0.7857
v  1.4597 -1.0178 -0.7857
v  -1.3577 -1.6650 -1.3215
v  1.4597 -1.6650 -1.3215
v  -1.4722 -1.1574 -1.3215
v  1.4597 -0.8261 -1.3215
v  -1.5470 -0.8261 -1.3215
v  1.4597 -1.1574 -1.3215
# 58 vertices

vn 0.0000 -1.0000 -0.0000
vn 0.0000 1.0000 -0.0000
vn 0.0000 0.0000 1.0000
vn 0.9710 0.0000 -0.2390
vn 0.0000 0.0000 -1.0000
vn -0.9710 0.0000 -0.2390
vn -0.9962 -0.0860 0.0148
vn 0.0000 0.9733 -0.2294
vn 0.8929 0.0000 0.4503
vn -0.8929 0.0000 0.4503
vn -0.9847 -0.1743 -0.0000
vn 0.3319 0.0000 -0.9433
vn -0.9276 -0.0801 0.3650
vn -0.9807 -0.1936 -0.0278
vn 0.0000 0.9612 -0.2759
vn 0.3809 0.0000 0.9246
vn -0.9806 -0.1946 0.0254
vn 0.0000 0.9184 -0.3957
vn 1.0000 0.0000 -0.0000
vn -0.9778 -0.0844 0.1917
vn -0.9887 -0.1481 -0.0213
vn -0.9887 -0.1481 0.0213
vn -0.9787 -0.1942 0.0671
vn -0.9113 -0.2057 0.3568
vn 0.9609 0.0000 0.2768
# 25 vertex normals

vt 0.2490 0.0429 0.0000
vt 0.2330 0.1075 0.0000
vt 0.0570 0.1075 0.0000
vt 0.0411 0.0429 0.0000
vt 0.6929 0.4974 0.0000
vt 0.6929 0.7728 0.0000
vt 0.6072 0.7517 0.0000
vt 0.6072 0.5185 0.0000
vt 0.2497 0.0429 0.0000
vt 0.4576 0.0429 0.0000
vt 0.4576 0.0854 0.0000
vt 0.2497 0.0854 0.0000
vt 0.4615 0.4589 0.0000
vt 0.3969 0.4589 0.0000
vt 0.3969 0.4164 0.0000
vt 0.4615 0.4164 0.0000
vt 0.5095 0.1305 0.0000
vt 0.5095 0.3290 0.0000
vt 0.4778 0.3362 0.0000
vt 0.4778 0.1305 0.0000
vt 0.2480 0.4428 0.0000
vt 0.2480 0.5074 0.0000
vt 0.2055 0.5074 0.0000
vt 0.2055 0.4428 0.0000
vt 0.4576 0.2048 0.0000
vt 0.4576 0.2508 0.0000
vt 0.2497 0.2508 0.0000
vt 0.2497 0.2048 0.0000
vt 0.3969 0.2970 0.0000
vt 0.3969 0.2510 0.0000
vt 0.4615 0.2510 0.0000
vt 0.4615 0.2970 0.0000
vt 0.7542 0.9797 0.0000
vt 0.6933 0.9797 0.0000
vt 0.6933 0.7465 0.0000
vt 0.7542 0.7465 0.0000
vt 0.0861 0.5074 0.0000
vt 0.0401 0.5074 0.0000
vt 0.0401 0.4428 0.0000
vt 0.0861 0.4428 0.0000
vt 0.2299 0.1410 0.0000
vt 0.0401 0.1410 0.0000
vt 0.2076 0.4093 0.0000
vt 0.2480 0.4093 0.0000
vt 0.8913 0.7530 0.0000
vt 0.8913 0.5198 0.0000
vt 0.9368 0.4974 0.0000
vt 0.9368 0.7754 0.0000
vt 0.3969 0.3399 0.0000
vt 0.3634 0.3457 0.0000
vt 0.3634 0.3049 0.0000
vt 0.4576 0.1619 0.0000
vt 0.2497 0.1619 0.0000
vt 0.4615 0.3399 0.0000
vt 0.8417 0.7754 0.0000
vt 0.7876 0.7754 0.0000
vt 0.7876 0.4974 0.0000
vt 0.8417 0.4974 0.0000
vt 0.1290 0.5074 0.0000
vt 0.1290 0.4428 0.0000
vt 0.0940 0.4093 0.0000
vt 0.1348 0.4093 0.0000
vt 0.3969 0.3887 0.0000
vt 0.3634 0.3921 0.0000
vt 0.2299 0.1744 0.0000
vt 0.1352 0.1744 0.0000
vt 0.2076 0.3759 0.0000
vt 0.2480 0.3759 0.0000
vt 0.5542 0.4974 0.0000
vt 0.6067 0.7704 0.0000
vt 0.5394 0.6550 0.0000
vt 0.5107 0.5058 0.0000
vt 0.2497 0.2510 0.0000
vt 0.2961 0.2510 0.0000
vt 0.2865 0.3518 0.0000
vt 0.2497 0.3518 0.0000
vt 0.4576 0.1131 0.0000
vt 0.2497 0.1131 0.0000
vt 0.4615 0.3887 0.0000
vt 0.5595 0.9121 0.0000
vt 0.5107 0.9229 0.0000
vt 0.5107 0.7709 0.0000
vt 0.5595 0.7709 0.0000
vt 0.1778 0.5074 0.0000
vt 0.1778 0.4428 0.0000
vt 0.1812 0.4093 0.0000
vt 0.3634 0.4185 0.0000
vt 0.1348 0.3759 0.0000
vt 0.1716 0.3759 0.0000
vt 0.3225 0.2510 0.0000
vt 0.3225 0.3518 0.0000
vt 0.2299 0.2079 0.0000
vt 0.0540 0.2079 0.0000
vt 0.2076 0.3424 0.0000
vt 0.2480 0.3424 0.0000
vt 0.6933 0.7461 0.0000
vt 0.6933 0.6050 0.0000
vt 0.7394 0.4974 0.0000
vt 0.7394 0.7461 0.0000
vt 0.1335 0.2755 0.0000
vt 0.1335 0.3115 0.0000
vt 0.0524 0.3115 0.0000
vt 0.0524 0.2851 0.0000
vt 0.2299 0.2413 0.0000
vt 0.0540 0.2413 0.0000
vt 0.2163 0.3090 0.0000
vt 0.2480 0.3090 0.0000
vt 0.7872 0.4974 0.0000
vt 0.7872 0.7461 0.0000
vt 0.3629 0.3535 0.0000
vt 0.3629 0.3799 0.0000
vt 0.3295 0.3886 0.0000
vt 0.3295 0.3680 0.0000
vt 0.9646 0.7399 0.0000
vt 0.9372 0.7461 0.0000
vt 0.9372 0.4974 0.0000
vt 0.9646 0.4974 0.0000
vt 0.3634 0.4589 0.0000
vt 0.3629 0.2510 0.0000
vt 0.3629 0.3518 0.0000
vt 0.1812 0.3424 0.0000
vt 0.1335 0.3519 0.0000
vt 0.0524 0.3519 0.0000
vt 0.1956 0.3090 0.0000
vt 0.3629 0.4203 0.0000
vt 0.3295 0.4203 0.0000
vt 0.2430 0.2748 0.0000
vt 0.0444 0.2748 0.0000
vt 0.2163 0.2755 0.0000
vt 0.2480 0.2755 0.0000
vt 0.8866 0.5140 0.0000
vt 0.8907 0.7565 0.0000
vt 0.8466 0.7700 0.0000
vt 0.8420 0.4974 0.0000
vt 0.2960 0.4203 0.0000
vt 0.2960 0.3886 0.0000
# 136 texture coords

g Box002
s off
f 1/1/1 2/2/1 3/3/1 4/4/1 
f 5/5/2 6/6/2 7/7/2 8/8/2 
f 1/9/3 4/10/3 9/11/3 10/12/3 
f 4/13/4 3/14/4 11/15/4 9/16/4 
f 12/17/5 13/18/5 14/19/5 15/20/5 
f 2/21/6 1/22/6 10/23/6 16/24/6 
f 17/25/3 6/26/3 5/27/3 18/28/3 
f 19/29/4 7/30/4 6/31/4 17/32/4 
f 20/33/5 8/34/5 7/35/5 19/36/5 
f 18/37/6 5/38/6 8/39/6 20/40/6 
f 3/3/1 2/2/1 21/41/1 22/42/1 
f 2/21/7 16/24/7 23/43/7 21/44/7 
f 20/45/8 19/46/8 24/47/8 25/48/8 
f 19/29/9 26/49/9 27/50/9 24/51/9 
f 28/52/3 17/25/3 18/28/3 29/53/3 
f 26/49/4 19/29/4 17/32/4 28/54/4 
f 30/55/5 25/56/5 24/57/5 27/58/5 
f 29/59/6 18/37/6 20/40/6 31/60/6 
f 31/60/10 20/40/10 25/61/10 30/62/10 
f 26/49/9 32/63/9 33/64/9 27/50/9 
f 22/42/1 21/41/1 34/65/1 35/66/1 
f 21/44/11 23/43/11 36/67/11 34/68/11 
f 30/69/2 27/70/2 37/71/2 38/72/2 
f 27/73/12 33/74/12 39/75/12 37/76/12 
f 40/77/3 28/52/3 29/53/3 41/78/3 
f 32/63/4 26/49/4 28/54/4 40/79/4 
f 42/80/5 38/81/5 37/82/5 39/83/5 
f 41/84/6 29/59/6 31/60/6 43/85/6 
f 43/85/13 31/60/13 30/62/13 44/86/13 
f 32/63/9 11/15/9 45/87/9 33/64/9 
f 44/86/14 30/62/14 38/88/14 42/89/14 
f 33/74/12 45/90/12 46/91/12 39/75/12 
f 35/66/1 34/65/1 47/92/1 48/93/1 
f 34/68/11 36/67/11 49/94/11 47/95/11 
f 42/96/15 39/97/15 50/98/15 51/99/15 
f 39/100/16 46/101/16 52/102/16 50/103/16 
f 48/93/1 47/92/1 53/104/1 54/105/1 
f 47/95/17 49/94/17 55/106/17 53/107/17 
f 51/99/18 50/98/18 56/108/18 57/109/18 
f 50/110/19 52/111/19 58/112/19 56/113/19 
f 9/11/3 40/77/3 41/78/3 10/12/3 
f 11/15/4 32/63/4 40/79/4 9/16/4 
f 55/114/5 57/115/5 56/116/5 58/117/5 
f 10/23/6 41/84/6 43/85/6 16/24/6 
f 16/24/20 43/85/20 44/86/20 23/43/20 
f 23/43/21 44/86/21 42/89/21 36/67/21 
f 11/15/9 3/14/9 22/118/9 45/87/9 
f 45/90/12 22/119/12 35/120/12 46/91/12 
f 36/67/22 42/89/22 51/121/22 49/94/22 
f 46/101/16 35/122/16 48/123/16 52/102/16 
f 49/94/23 51/121/23 57/124/23 55/106/23 
f 52/111/19 48/125/19 54/126/19 58/112/19 
f 54/105/1 53/104/1 13/127/1 12/128/1 
f 53/107/24 55/106/24 14/129/24 13/130/24 
f 55/131/2 58/132/2 15/133/2 14/134/2 
f 58/112/25 54/126/25 12/135/25 15/136/25 
# 56 polygons

