# 3ds Max Wavefront OBJ Exporter v0.97b - (c)2007 guruware
# File Created: 07.01.2018 08:54:08

#
# object Box004
#

v  11.3285 3.3000 0.9176
v  11.1970 3.3000 0.2590
v  11.9365 3.3000 0.2070
v  11.9871 3.3000 1.0856
v  11.3285 3.4077 0.9176
v  11.9871 3.4077 1.0856
v  11.9365 3.4077 0.2070
v  11.1970 3.4077 0.2590
v  12.4133 3.3000 0.8932
v  12.5444 3.3000 0.3563
v  12.5444 3.4077 0.3563
v  12.4133 3.4077 0.8932
v  12.3872 3.3000 -0.2120
v  11.8859 3.3000 -0.5037
v  11.8859 3.4077 -0.5037
v  12.3872 3.4077 -0.2120
v  11.3513 3.3000 -0.1345
v  11.3513 3.4077 -0.1345
# 18 vertices

vn 0.0000 -1.0000 -0.0000
vn 0.0000 1.0000 -0.0000
vn -0.2472 0.0000 0.9690
vn 0.0870 0.0000 0.9962
vn 0.9714 0.0000 0.2374
vn 0.9999 -0.0000 -0.0151
vn 0.9999 0.0000 -0.0151
vn 0.5028 0.0000 -0.8644
vn -0.0388 0.0000 -0.9992
vn 0.5028 -0.0000 -0.8644
vn -0.9310 0.0000 -0.3649
vn -0.9961 0.0000 -0.0881
vn 0.4115 0.0000 0.9114
vn -0.5682 0.0000 -0.8229
vn 0.9638 -0.0000 -0.2666
vn 0.9638 0.0000 -0.2666
vn -0.9806 0.0000 0.1958
# 17 vertex normals

vt 0.4948 0.1546 0.0000
vt 0.4920 0.3818 0.0000
vt 0.2436 0.3470 0.0000
vt 0.2887 0.0527 0.0000
vt 0.8500 0.5649 0.0000
vt 0.6201 0.5661 0.0000
vt 0.7086 0.2819 0.0000
vt 0.9471 0.3595 0.0000
vt 0.5695 0.5672 0.0000
vt 0.5695 0.7900 0.0000
vt 0.5331 0.7900 0.0000
vt 0.5331 0.5672 0.0000
vt 0.5323 0.5672 0.0000
vt 0.5323 0.7489 0.0000
vt 0.4959 0.7489 0.0000
vt 0.4959 0.5672 0.0000
vt 0.6066 0.5672 0.0000
vt 0.6066 0.7368 0.0000
vt 0.5702 0.7368 0.0000
vt 0.5702 0.5672 0.0000
vt 0.0894 0.5868 0.0000
vt 0.0894 0.7200 0.0000
vt 0.0529 0.7200 0.0000
vt 0.0529 0.5868 0.0000
vt 0.2104 0.5858 0.0000
vt 0.0650 0.4540 0.0000
vt 0.0529 0.2548 0.0000
vt 0.4959 0.4681 0.0000
vt 0.4968 0.2811 0.0000
vt 0.5695 0.9342 0.0000
vt 0.5331 0.9342 0.0000
vt 0.6066 0.9177 0.0000
vt 0.5702 0.9177 0.0000
vt 0.4133 0.5012 0.0000
vt 0.7834 0.0527 0.0000
vt 0.9286 0.2177 0.0000
vt 0.5323 0.9411 0.0000
vt 0.4959 0.9411 0.0000
vt 0.0894 0.9428 0.0000
vt 0.0529 0.9428 0.0000
vt 0.1341 0.0864 0.0000
vt 0.5949 0.1074 0.0000
# 42 texture coords

g Box004
s 2
f 1/1/1 2/2/1 3/3/1 4/4/1 
s 4
f 5/5/2 6/6/2 7/7/2 8/8/2 
s 8
f 1/9/3 4/10/4 6/11/4 5/12/3 
s 16
f 9/13/5 10/14/6 11/15/7 12/16/5 
s 32
f 13/17/8 14/18/9 15/19/9 16/20/10 
s 64
f 17/21/11 2/22/12 8/23/12 18/24/11 
s 2
f 14/25/1 13/26/1 10/27/1 3/3/1 
s 4
f 6/6/2 12/28/2 11/29/2 7/7/2 
s 8
f 4/10/4 9/30/13 12/31/13 6/11/4 
s 32
f 14/18/9 17/32/14 18/33/14 15/19/9 
s 2
f 2/2/1 17/34/1 14/25/1 3/3/1 
s 4
f 7/7/2 15/35/2 18/36/2 8/8/2 
s 16
f 10/14/6 13/37/15 16/38/16 11/15/7 
s 64
f 2/22/12 1/39/17 5/40/17 8/23/12 
s 2
f 10/27/1 9/41/1 4/4/1 3/3/1 
s 4
f 11/29/2 16/42/2 15/35/2 7/7/2 
# 16 polygons

